<svg id="Layer_1" data-name="Layer 1" xmlns="http://www.w3.org/2000/svg" viewBox="0 0 122.88 102.25"><defs><style>.cls-1,.cls-4{fill:#262626;}.cls-2{fill:#ffcb00;}.cls-3{fill:#fd5;}.cls-3,.cls-4{fill-rule:evenodd;}</style></defs><title>free</title><path class="cls-1" d="M23.5,45.24a3.77,3.77,0,1,1-4.63-6L52.14,13.44v7.4h2.78L23.5,45.24ZM70.31,13.1,104,39.28a3.78,3.78,0,1,1-4.64,6L68,20.84h2.35V13.1Z"/><path class="cls-2" d="M9.12,40.39H113.76a9.09,9.09,0,0,1,6.44,2.68l.17.18a9.13,9.13,0,0,1,2.51,6.27V93.13a9.13,9.13,0,0,1-9.12,9.12H9.11A9.13,9.13,0,0,1,0,93.15H0V49.52a9.09,9.09,0,0,1,2.68-6.44h0a9.09,9.09,0,0,1,6.44-2.68Z"/><path class="cls-3" d="M9.12,43.14H113.76a6.39,6.39,0,0,1,6.37,6.38V93.13a6.39,6.39,0,0,1-6.37,6.38H9.12a6.38,6.38,0,0,1-6.37-6.37V49.52a6.39,6.39,0,0,1,6.37-6.38Z"/><path class="cls-1" d="M35.9,56.52c-.08,1.31-.16,2.61-.23,3.88s-.16,2.58-.27,3.88l-8.86.47v2.63h7.69l-.42,6.47-7.31.21,0,12.36L16,86.63l.67-30.11Zm26.79,10a14,14,0,0,1-.28,3,8.76,8.76,0,0,1-.89,2.44,8.89,8.89,0,0,1-1.57,2,14.33,14.33,0,0,1-2.31,1.79l5,8.85-9.39,1.84L50,77.53l-2.59.08L47,86.29h-9q.11-4.76.2-9.48t.22-9.47c0-1.61.05-3.19.08-4.76s.09-3.16.17-4.77a25.62,25.62,0,0,1,2.88-.89,28.68,28.68,0,0,1,2.85-.56c1-.13,1.93-.22,2.9-.27s2-.07,3-.07a16.46,16.46,0,0,1,4.61.65,11.92,11.92,0,0,1,3.93,2,9.85,9.85,0,0,1,2.75,3.28,9.66,9.66,0,0,1,1,4.57Zm-9.35.67a5.44,5.44,0,0,0-.24-1.61,3.64,3.64,0,0,0-.72-1.26,3.21,3.21,0,0,0-1.16-.84,4.17,4.17,0,0,0-1.64-.3,5.56,5.56,0,0,0-.82.05,5,5,0,0,0-.77.16l-.33,7.76h.5A7.67,7.67,0,0,0,50,70.91a5.76,5.76,0,0,0,1.68-.72A3.84,3.84,0,0,0,52.87,69a3.34,3.34,0,0,0,.47-1.79ZM85.16,56.52c-.08,1.31-.16,2.61-.23,3.88s-.16,2.58-.27,3.88l-8.86.47-.2,2.63h6.22l-.46,6.47-6.26.21-.22,3h8.86c-.08,1.53-.17,3-.26,4.56s-.17,3-.24,4.54l-18,.42.67-30.11Zm21.74,0c-.09,1.31-.17,2.61-.23,3.88s-.16,2.58-.27,3.88l-8.86.47-.21,2.63h6.23l-.46,6.47-6.27.21-.21,3h8.86c-.09,1.53-.17,3-.26,4.56s-.18,3-.25,4.54l-18,.42.67-30.11Z"/><path class="cls-4" d="M61.44,0a13.43,13.43,0,1,1-9.5,3.94A13.36,13.36,0,0,1,61.44,0Zm0,7.75a5.68,5.68,0,1,1-4,1.67,5.67,5.67,0,0,1,4-1.67Z"/></svg>